<?xml version="1.0" encoding="UTF-8" standalone="no"?>
<!-- Created with Inkscape (http://www.inkscape.org/) -->
<svg id="svg2" xmlns:rdf="http://www.w3.org/1999/02/22-rdf-syntax-ns#" xmlns="http://www.w3.org/2000/svg" height="542.98" width="490.59" version="1.1" xmlns:cc="http://creativecommons.org/ns#" xmlns:dc="http://purl.org/dc/elements/1.1/">
 <defs id="defs4">
  <filter id="filter6007" height="1" width="1" color-interpolation-filters="sRGB" y="0" x="0">
   <feColorMatrix id="feColorMatrix6009" values="1" type="saturate" result="result2"/>
   <feColorMatrix id="feColorMatrix6011" type="hueRotate" in="result2" values="50" result="result1"/>
   <feColorMatrix id="feColorMatrix6013" type="matrix" values="1 -1 1 0 0 0 1 0 0 0 1 -1 1 0 0 0 0 0 1 0 "/>
   <feColorMatrix id="feColorMatrix6015" type="hueRotate" values="300"/>
  </filter>
 </defs>
 <metadata id="metadata7">
  <rdf:RDF>
   <cc:Work rdf:about="">
    <dc:format>image/svg+xml</dc:format>
    <dc:type rdf:resource="http://purl.org/dc/dcmitype/StillImage"/>
    <dc:title/>
   </cc:Work>
  </rdf:RDF>
 </metadata>
 <g id="layer1" transform="translate(183.91783,-121.68661)">
  <g id="g5786" filter="url(#filter6007)" transform="translate(120.99351,-19.696618)">
   <g id="g4077">
    <g id="g4065" transform="translate(-8.8073795,-231.844)"></g>
   </g>
   <g id="g5509" fill-rule="nonzero" transform="translate(-297.90167,28.960285)">
    <path id="path4029" style="enable-background:accumulate;color:#000000;" d="M587.91,301.12c-85.35,0-154.91,66.74-154.91,149.19,0,82.46,69.56,149.19,154.91,149.19,85.343,0,154.91-66.732,154.91-149.19,0-82.456-69.563-149.19-154.91-149.19z" transform="matrix(1.5480769,0,0,1.61,-671.83792,-341.09207)" fill="#d70606"/>
    <g id="g4051" transform="translate(-8.8073795,-231.844)">
     <path id="path3970" style="enable-background:accumulate;color:#000000;" d="m736.48,450.31c0,78.898-66.518,142.86-148.57,142.86-82.054,0-148.57-63.959-148.57-142.86,0-78.898,66.518-142.86,148.57-142.86,82.054,0,148.57,63.959,148.57,142.86z" transform="matrix(1.5480769,0,0,1.61,-663.03442,-109.29455)" fill="#ed0707"/>
     <path id="path5565" style="enable-background:accumulate;color:#000000;" d="m252.5,447.06c-3.2302-0.0934-6.4501-0.0696-9.6875,0.0312-0.0313,0.00098-0.0624-0.00099-0.0937,0-63.31,0.88938-124.4,40.752-150.34,101.09-0.01296,0.0301-0.01831,0.0636-0.03125,0.0937-23.945,53.41-16.749,119.35,17.771,165.98,0.0218,0.0307,0.0407,0.0631,0.0625,0.0937,35.913,50.45,98.571,76.84,158.38,68.688,0.0412-0.006,0.0838,0.006,0.125,0v-0.0312c61.73-7.22,117.94-51.85,138.32-113.22,0.007-0.022,0.0239-0.0405,0.0312-0.0625,0.003-0.009-0.003-0.0218,0-0.0312,18.354-52.989,7.6364-114.92-27.156-158.09-0.0181-0.0233-0.0444-0.0392-0.0625-0.0625-30.85-39.59-78.42-63.06-127.31-64.48z" fill="#f82929"/>
     <path id="path4031" style="enable-background:accumulate;color:#000000;" d="m242.89,453.07c-60.901,0.81847-120.07,39.407-145.03,97.561-23.057,51.341-16.079,115.35,17.138,160.14,34.585,48.658,95.287,74.206,152.88,66.309,59.373-6.8994,113.87-50.11,133.48-109.26,17.693-50.976,7.2622-111.06-26.203-152.53-31.705-40.717-81.915-63.823-132.26-62.226z" fill="#a00505"/>
    </g>
    <g id="g4057" fill="#FFF" transform="translate(-8.8073795,-231.844)">
     <path id="rect4033" style="enable-background:accumulate;color:#000000;" d="m230.29,344.27,33.601,0c7.3124,0,13.199,5.8869,13.199,13.199v60.268c0,7.3124-5.8869,13.199-13.199,13.199h-33.601c-7.3124,0-13.199-5.8869-13.199-13.199v-60.268c0-7.3124,5.8869-13.199,13.199-13.199z"/>
     <path id="rect4041" style="enable-background:accumulate;color:#000000;" d="m-426.51,250.38,33.601,0c7.3124,0,13.199,5.8869,13.199,13.199v60.268c0,7.3124-5.8869,13.199-13.199,13.199h-33.601c-7.3124,0-13.199-5.8869-13.199-13.199v-60.268c0-7.3124,5.8869-13.199,13.199-13.199z" transform="matrix(0.5,-0.8660254,0.8660254,0.5,0,0)"/>
     <path id="rect4043" style="enable-background:accumulate;color:#000000;" d="m-673.61-365.38,33.601,0c7.3124,0,13.199,5.8869,13.199,13.199v60.268c0,7.3124-5.8869,13.199-13.199,13.199h-33.601c-7.3124,0-13.199-5.8869-13.199-13.199v-60.268c0-7.3124,5.8869-13.199,13.199-13.199z" transform="matrix(-0.5,-0.8660254,0.8660254,-0.5,0,0)"/>
     <path id="rect4045" style="enable-background:accumulate;color:#000000;" d="m-263.89-887.24,33.601,0c7.3124,0,13.199,5.8869,13.199,13.199v60.268c0,7.3124-5.8869,13.199-13.199,13.199h-33.601c-7.3124,0-13.199-5.8869-13.199-13.199v-60.268c0-7.3124,5.8869-13.199,13.199-13.199z" transform="scale(-1,-1)"/>
     <path id="rect4047" style="enable-background:accumulate;color:#000000;" d="m392.91-793.35,33.601,0c7.3124,0,13.199,5.8869,13.199,13.199v60.268c0,7.3124-5.8869,13.199-13.199,13.199h-33.601c-7.3124,0-13.199-5.8869-13.199-13.199v-60.268c0-7.3124,5.8869-13.199,13.199-13.199z" transform="matrix(-0.5,0.8660254,-0.8660254,-0.5,0,0)"/>
     <path id="rect4049" style="enable-background:accumulate;color:#000000;" d="m640.01-177.6,33.601,0c7.3124,0,13.199,5.8869,13.199,13.199v60.268c0,7.3124-5.8869,13.199-13.199,13.199h-33.601c-7.3124,0-13.199-5.8869-13.199-13.199v-60.268c0-7.3124,5.8869-13.199,13.199-13.199z" transform="matrix(0.5,0.8660254,-0.8660254,0.5,0,0)"/>
    </g>
    <g id="g3934" transform="matrix(0.62700938,-0.11081825,0.1076444,0.60905175,-7.3917743,99.764343)">
     <path id="path3916" style="enable-background:accumulate;color:#000000;" d="m281.59,290.47c-4.1945,0.14784-8.3715,0.85406-12.406,2.125-16.286,5.13-27.036,18.755-32.438,33.875-5.4014,15.12-5.9547,32.138-1.3125,46.875,2.2504,7.144,4.0014,13.999,6.2188,20.375-8.1582,2.1196-16.028,4.7468-23.562,7.875-0.47501-14.227-5.5343-28.841-14.25-40.625-9.149-12.37-22.781-21.875-39.094-21.875s-30.655,9.2542-40.906,21.5-16.875,27.786-16.875,43.125c0,13.681,9.1197,24.56,20.219,32.562,7.6116,5.488,16.509,9.8142,25.594,13.125-29.401,34.565-45.812,80.457-45.812,130.22,0,52.354,22.055,84.801,57.438,101.62,35.382,16.824,82.743,19.688,136.62,19.688,54.346,0,104.1-7.6329,141.25-29.094,37.147-21.461,60.875-57.833,60.875-110.41,0-50.756-23.759-93.387-60.438-123.34-31.72-25.94-73.08-42.65-117.7-48.33,5.0779-4.6759,9.7171-9.7618,13.562-15.125,7.8394-10.934,12.861-23.84,8.8438-36.594-4.1823-13.277-13.586-25.065-25.312-33.75-11.726-8.6853-25.951-14.357-40.5-13.844z" transform="translate(6,0)" fill="#f95ee4"/>
     <path id="path3869" style="enable-background:accumulate;color:#000000;" d="m287.88,298.66c-3.4722,0.12238-6.8938,0.70265-10.219,1.75-26.599,8.3788-36.439,44.969-28.406,70.469,3.545,11.254,5.8782,21.448,9.6562,28.594-15.306,3.1009-29.565,8.1109-42.656,14.688-0.0654-3.3227-0.15625-6.808-0.15625-10.438,0-25.707-19.126-56.438-45.344-56.438s-49.594,30.731-49.594,56.438c0,19.753,27.493,35.47,52.125,41.688-33.299,33.725-52.125,81.647-52.125,134.22,0,100.42,78.76,113.12,185.88,113.12s193.94-30.892,193.94-131.31c0-96.443-89.407-160.43-191.38-165.34,21.667-14.3,41.827-37.064,36-55.562-7.0284-22.312-33.414-42.732-57.719-41.875z" fill="#fa73e8"/>
     <path id="path3878" style="enable-background:accumulate;color:#000000;" d="m193.95,404.85c0,10.6-9.0452,19.193-20.203,19.193s-20.203-8.593-20.203-19.193,9.0452-19.193,20.203-19.193,20.203,8.593,20.203,19.193z" transform="translate(-10,-6)" fill="#f945e0"/>
     <path id="path3880" style="enable-background:accumulate;color:#000000;" d="m311.66,352c0,14.545-11.124,26.336-24.846,26.336s-24.846-11.791-24.846-26.336,11.124-26.336,24.846-26.336,24.846,11.791,24.846,26.336z" fill="#f945e0"/>
     <g id="g3906" transform="matrix(-1.5381024,0.12439204,0.10468412,1.4413767,707.8939,-243.22054)">
      <path id="path3908" style="enable-background:accumulate;color:#000000;" d="m268.56,472.47c-28.372,0-51.312,23.777-51.312,52.75s22.941,52.75,51.312,52.75c28.372,0,51.312-23.777,51.312-52.75s-22.941-52.75-51.312-52.75z" transform="matrix(0.6250731,0.00107385,8.6228301e-4,0.64903298,69.053273,146.2328)" fill="#f947e1"/>
      <path id="path3910" style="enable-background:accumulate;color:#000000;" d="m314.29,525.22c0,26.036-20.467,47.143-45.714,47.143s-45.714-21.107-45.714-47.143,20.467-47.143,45.714-47.143,45.714,21.107,45.714,47.143z" transform="matrix(0.62500001,0,0,0.63636363,69.57143,153.84598)" fill="#FFF"/>
      <path id="path3912" style="enable-background:accumulate;color:#000000;" d="m220.21,565.47c0,5.5789-4.2965,10.102-9.5964,10.102-5.3,0-9.5964-4.5226-9.5964-10.102,0-5.5789,4.2965-10.102,9.5964-10.102,5.3,0,9.5964,4.5226,9.5964,10.102z" transform="matrix(1.3684211,0,0,1.4,-53.796168,-303.94889)" fill="#1c1c1c"/>
     </g>
     <g id="g3918" transform="matrix(1.3495956,0.10663083,-0.09185424,1.2355709,-87.725416,-89.622496)">
      <path id="path3920" style="enable-background:accumulate;color:#000000;" d="m268.56,472.47c-28.372,0-51.312,23.777-51.312,52.75s22.941,52.75,51.312,52.75c28.372,0,51.312-23.777,51.312-52.75s-22.941-52.75-51.312-52.75z" transform="matrix(0.6250731,0.00107385,8.6228301e-4,0.64903298,69.053273,146.2328)" fill="#f947e1"/>
      <path id="path3922" style="enable-background:accumulate;color:#000000;" d="m314.29,525.22c0,26.036-20.467,47.143-45.714,47.143s-45.714-21.107-45.714-47.143,20.467-47.143,45.714-47.143,45.714,21.107,45.714,47.143z" transform="matrix(0.62500001,0,0,0.63636363,69.57143,153.84598)" fill="#FFF"/>
      <path id="path3924" style="enable-background:accumulate;color:#000000;" d="m220.21,565.47c0,5.5789-4.2965,10.102-9.5964,10.102-5.3,0-9.5964-4.5226-9.5964-10.102,0-5.5789,4.2965-10.102,9.5964-10.102,5.3,0,9.5964,4.5226,9.5964,10.102z" transform="matrix(1.3684211,0,0,1.4,-53.796168,-303.94889)" fill="#1c1c1c"/>
     </g>
     <g id="g3896" fill="#f829db">
      <path id="path3904" style="enable-background:accumulate;color:#000000;" d="m293.16,499.81c-33.621,0.47806-60.622,8.8297-78.688,25.75-18.065,16.92-25.533,42.052-21.906,70.219,3.2347,25.123,18.221,47.525,38.062,63.875s44.897,26.969,70.406,26.969c50.569,0,85.645-41.052,91.875-88.281,3.3083-25.081,1.6553-49.021-12.125-67.594-13.78-18.58-38.3-29.06-73.78-30.7-4.7382-0.21862-9.3636-0.3137-13.844-0.25z" transform="matrix(1.0608474,-0.26970379,0.24402686,0.95985026,-152.62014,78.379345)"/>
      <path id="path3900" style="enable-background:accumulate;color:#000000;" d="m271.73,573.55c0,7.8105-2.7136,14.142-6.0609,14.142-3.3474,0-6.0609-6.3316-6.0609-14.142,0-7.8105,2.7136-14.142,6.0609-14.142,3.3474,0,6.0609,6.3316,6.0609,14.142z" transform="matrix(1.7623205,0.94563539,-0.57413577,1.0699803,144.6885,-289.5064)"/>
      <path id="path3902" style="enable-background:accumulate;color:#000000;" d="m271.73,573.55c0,7.8105-2.7136,14.142-6.0609,14.142-3.3474,0-6.0609-6.3316-6.0609-14.142,0-7.8105,2.7136-14.142,6.0609-14.142,3.3474,0,6.0609,6.3316,6.0609,14.142z" transform="matrix(1.4701215,-1.3560025,0.82328721,0.89257376,-521.21532,410.65043)"/>
     </g>
     <g id="g3887">
      <path id="path3816" style="enable-background:accumulate;color:#000000;" d="m381.11,596.78c-5.6177,42.588-35.856,77.928-80.087,77.928s-91.155-37.865-96.641-80.474c-6.9849-54.25,29.916-85.611,102.04-82.284,66.944,3.0887,80.907,37.707,74.691,84.83z" transform="matrix(1.0608474,-0.26970379,0.24402686,0.95985026,-152.62014,78.379345)" fill="#f945e0"/>
      <path id="path3818" style="enable-background:accumulate;color:#000000;" d="m291.8,572.66c-8.5355,15.138-24.557,22.761-35.786,17.027-11.228-5.7336-13.412-22.653-4.8761-37.791,8.5355-15.138,24.557-22.761,35.786-17.027,11.228,5.7336,13.412,22.653,4.8761,37.791z" fill="#c306a9"/>
      <path id="path3818-6" style="enable-background:accumulate;color:#000000;" d="m346.46,548.12c6.4303,6.9714,7.6538,16.302,2.7327,20.842-4.921,4.539-14.123,2.5671-20.553-4.4043-6.4303-6.9714-7.6538-16.302-2.7328-20.842,4.921-4.539,14.123-2.5672,20.553,4.4043z" fill="#c306a9"/>
     </g>
    </g>
    <rect id="rect4091" style="enable-background:accumulate;color:#000000;" transform="matrix(0.80417614,0.59439106,-0.59439106,0.80417614,0,0)" ry="5.1181" height="42.426" width="42.426" y="-53.471" x="380.72" fill="#990505"/>
    <path id="rect5407" style="enable-background:accumulate;color:#000000;" d="m385.84-53.471,32.19,0c2.8354,0,5.1181,2.2827,5.1181,5.1181v32.19c0,2.8354-2.2827,5.1181-5.1181,5.1181h-32.19c-2.8354,0-5.1181-2.2827-5.1181-5.1181v-32.19c0-2.8354,2.2827-5.1181,5.1181-5.1181z" transform="matrix(0.80417614,0.59439106,-0.59439106,0.80417614,0,0)" fill="#990505"/>
    <path id="rect5419" style="enable-background:accumulate;color:#000000;" d="m31.531,226.88,32.19,0c2.8354,0,5.1181,2.2827,5.1181,5.1181v32.19c0,2.8354-2.2827,5.1181-5.1181,5.1181h-32.19c-2.8354,0-5.1181-2.2827-5.1181-5.1181v-32.19c0-2.8354,2.2827-5.1181,5.1181-5.1181z" transform="matrix(0.91684583,-0.39924144,0.39924144,0.91684583,0,0)" fill="#990505"/>
    <path id="rect5421" style="enable-background:accumulate;color:#000000;" d="m-388.42,60.218,32.19,0c2.8354,0,5.1181,2.2827,5.1181,5.1181v32.19c0,2.8354-2.2827,5.1181-5.1181,5.1181h-32.19c-2.8354,0-5.1181-2.2827-5.1181-5.1181v-32.19c0-2.8354,2.2827-5.1181,5.1181-5.1181z" transform="matrix(0.11266969,-0.9936325,0.9936325,0.11266969,0,0)" fill="#990505"/>
    <path id="rect5423" style="enable-background:accumulate;color:#000000;" d="m-454.06-386.8,32.19,0c2.8354,0,5.1181,2.2827,5.1181,5.1181v32.19c0,2.8354-2.2827,5.1181-5.1181,5.1181h-32.19c-2.8354,0-5.1181-2.2827-5.1181-5.1181v-32.19c0-2.8354,2.2827-5.1181,5.1181-5.1181z" transform="matrix(-0.80417614,-0.59439106,0.59439106,-0.80417614,0,0)" fill="#990505"/>
    <path id="rect5425" style="enable-background:accumulate;color:#000000;" d="m-99.746-667.15,32.19,0c2.8354,0,5.1181,2.2827,5.1181,5.1181v32.19c0,2.8354-2.2827,5.1181-5.1181,5.1181h-32.19c-2.8354,0-5.1181-2.2827-5.1181-5.1181v-32.19c0-2.8354,2.2827-5.1181,5.1181-5.1181z" transform="matrix(-0.91684583,0.39924144,-0.39924144,-0.91684583,0,0)" fill="#990505"/>
    <path id="rect5427" style="enable-background:accumulate;color:#000000;" d="m320.2-500.49,32.19,0c2.8354,0,5.1181,2.2827,5.1181,5.1181v32.19c0,2.8354-2.2827,5.1181-5.1181,5.1181h-32.19c-2.8354,0-5.1181-2.2827-5.1181-5.1181v-32.19c0-2.8354,2.2827-5.1181,5.1181-5.1181z" transform="matrix(-0.11266969,0.9936325,-0.9936325,-0.11266969,0,0)" fill="#990505"/>
    <path id="path5573" style="enable-background:accumulate;color:#000000;" d="m342.71,184.37c-5.3934-3.4266-10.766,2.0787-12.985,6.6847-5.2312,8.1099-12.565,15.129-16.79,23.768-1.3542,7.952,8.7572,10.444,13.174,14.983,6.6234,3.7476,11.749,10.876,19.215,12.803,7.6931-0.09,9.7484-9.6927,14.501-14.152,3.5328-6.4355,10.748-11.324,12.213-18.68-0.34473-7.5171-9.7393-9.5115-14.156-14.233-5.0669-3.7113-10.074-7.5088-15.172-11.175z" fill="#b00606"/>
    <path id="path5575" style="enable-background:accumulate;color:#000000;" d="m118.1,193.88c-6.0797,3.2554-3.1228,11.042-0.30404,15.504,4.2654,8.2852,6.5668,17.829,11.789,25.508,6.19,5.1692,13.431-2.3694,19.563-3.9173,6.5513-3.8718,15.301-4.7228,20.696-10.239,3.7914-6.6908-3.5305-13.294-5.0051-19.634-3.7569-6.2676-4.4613-14.793-9.9344-19.84-6.7056-3.6177-13.2,3.5736-19.54,5.0661-5.7475,2.5324-11.54,4.9703-17.264,7.5519z" fill="#b00606"/>
    <path id="path5577" style="enable-background:accumulate;color:#000000;" d="m14.044,393.15c-0.2904,6.3972,7.197,8.2741,12.282,7.9028,9.6389,0.47541,19.385,3.317,28.979,2.657,7.5537-2.7573,4.6747-12.834,6.3889-18.901,0.05844-7.5047,3.2184-15.245,1.6557-22.645-3.6101-7.1045-13.375-3.9744-19.682-5.88-7.3397,0.15826-15.181-3.6457-22.284-1.2373-6.3431,4.0656-3.365,13.194-5.2477,19.376-0.68064,6.2437-1.4656,12.479-2.0921,18.727z" fill="#b00606"/>
    <path id="path5579" style="enable-background:accumulate;color:#000000;" d="m134.59,582.93c5.3952,3.395,10.764-2.0768,12.985-6.6847,5.2412-8.1045,12.552-15.138,16.79-23.768,1.39-7.9304-8.7849-10.471-13.174-14.983-6.6287-3.7377-11.741-10.89-19.215-12.803-7.6913,0.0567-9.7398,9.7021-14.501,14.152-3.5494,6.3874-10.581,11.26-12.215,18.523,0.20062,7.6094,9.7132,9.6517,14.157,14.389,5.0669,3.7113,10.074,7.5088,15.172,11.175z" fill="#b00606"/>
    <path id="path5581" style="enable-background:accumulate;color:#000000;" d="m359.2,573.4c6.0723-3.2327,3.1269-11.061,0.30404-15.504-4.2654-8.2852-6.5668-17.829-11.789-25.508-6.2161-5.1476-13.405,2.3576-19.563,3.9173-6.5572,3.8623-15.293,4.7374-20.696,10.239-3.7923,6.6917,3.5317,13.294,5.0051,19.634,3.7569,6.2676,4.4613,14.793,9.9344,19.84,6.6856,3.6517,13.217-3.5972,19.54-5.0661,5.7475-2.5324,11.54-4.9703,17.264-7.5519z" fill="#b00606"/>
    <path id="path5583" style="enable-background:accumulate;color:#000000;" d="m463.26,374.14c0.27395-6.3816-7.1781-8.2804-12.282-7.9028-9.5994-0.53229-19.283-3.1934-28.848-2.705-7.7309,2.6638-4.7831,12.821-6.5167,18.917-0.0506,7.5126-3.2345,15.272-1.6592,22.676,3.6332,7.1017,13.386,3.9199,19.685,5.8489,7.3243-0.14482,15.098,3.5894,22.215,1.2924,6.3945-4.0181,3.4459-13.196,5.3134-19.4,0.68085-6.2437,1.4654-12.479,2.0921-18.727z" fill="#b00606"/>
   </g>
   <g id="g5450" transform="matrix(1.0605548,0,0,1.0605548,-851.32623,-235.89118)">
    <path id="path5452" style="enable-background:accumulate;color:#000000;" d="m746.51,381.72c-127.03,0-230,102.97-230,230s102.97,230,230,230,230-102.97,230-230-102.97-230-230-230zm0,5c124.26,0,225,100.74,225,225s-100.74,225-225,225-225-100.74-225-225,100.74-225,225-225z" fill-rule="nonzero" fill="#ed0707"/>
   </g>
  </g>
  <g id="g5881" transform="translate(-377.04955,18.289717)">
   <g id="g5885">
    <g id="g5887" transform="translate(-8.8073795,-231.844)"></g>
   </g>
   <g id="g5891" fill-rule="nonzero" transform="translate(-297.90167,28.960285)">
    <path id="path5893" style="enable-background:accumulate;color:#000000;" d="M587.91,301.12c-85.35,0-154.91,66.74-154.91,149.19,0,82.46,69.56,149.19,154.91,149.19,85.343,0,154.91-66.732,154.91-149.19,0-82.456-69.563-149.19-154.91-149.19z" transform="matrix(1.5480769,0,0,1.61,-671.83792,-341.09207)" fill="#d70606"/>
    <g id="g5895" transform="translate(-8.8073795,-231.844)">
     <path id="path5897" style="enable-background:accumulate;color:#000000;" d="m736.48,450.31c0,78.898-66.518,142.86-148.57,142.86-82.054,0-148.57-63.959-148.57-142.86,0-78.898,66.518-142.86,148.57-142.86,82.054,0,148.57,63.959,148.57,142.86z" transform="matrix(1.5480769,0,0,1.61,-663.03442,-109.29455)" fill="#ed0707"/>
     <path id="path5899" style="enable-background:accumulate;color:#000000;" d="m252.5,447.06c-3.2302-0.0934-6.4501-0.0696-9.6875,0.0312-0.0313,0.00098-0.0624-0.00099-0.0937,0-63.31,0.88938-124.4,40.752-150.34,101.09-0.01296,0.0301-0.01831,0.0636-0.03125,0.0937-23.945,53.41-16.749,119.35,17.771,165.98,0.0218,0.0307,0.0407,0.0631,0.0625,0.0937,35.913,50.45,98.571,76.84,158.38,68.688,0.0412-0.006,0.0838,0.006,0.125,0v-0.0312c61.73-7.22,117.94-51.85,138.32-113.22,0.007-0.022,0.0239-0.0405,0.0312-0.0625,0.003-0.009-0.003-0.0218,0-0.0312,18.354-52.989,7.6364-114.92-27.156-158.09-0.0181-0.0233-0.0444-0.0392-0.0625-0.0625-30.85-39.59-78.42-63.06-127.31-64.48z" fill="#f82929"/>
     <path id="path5901" style="enable-background:accumulate;color:#000000;" fill="#a00505" d="m242.89,453.07c-60.901,0.81847-120.07,39.407-145.03,97.561-23.057,51.341-16.079,115.35,17.138,160.14,34.585,48.658,95.287,74.206,152.88,66.309,59.373-6.8994,113.87-50.11,133.48-109.26,17.693-50.976,7.2622-111.06-26.203-152.53-31.705-40.717-81.915-63.823-132.26-62.226z"/>
    </g>
    <g id="g5903" fill="#FFF" transform="translate(-8.8073795,-231.844)">
     <path id="path5905" style="enable-background:accumulate;color:#000000;" d="m230.29,344.27,33.601,0c7.3124,0,13.199,5.8869,13.199,13.199v60.268c0,7.3124-5.8869,13.199-13.199,13.199h-33.601c-7.3124,0-13.199-5.8869-13.199-13.199v-60.268c0-7.3124,5.8869-13.199,13.199-13.199z"/>
     <path id="path5907" style="enable-background:accumulate;color:#000000;" d="m-426.51,250.38,33.601,0c7.3124,0,13.199,5.8869,13.199,13.199v60.268c0,7.3124-5.8869,13.199-13.199,13.199h-33.601c-7.3124,0-13.199-5.8869-13.199-13.199v-60.268c0-7.3124,5.8869-13.199,13.199-13.199z" transform="matrix(0.5,-0.8660254,0.8660254,0.5,0,0)"/>
     <path id="path5909" style="enable-background:accumulate;color:#000000;" d="m-673.61-365.38,33.601,0c7.3124,0,13.199,5.8869,13.199,13.199v60.268c0,7.3124-5.8869,13.199-13.199,13.199h-33.601c-7.3124,0-13.199-5.8869-13.199-13.199v-60.268c0-7.3124,5.8869-13.199,13.199-13.199z" transform="matrix(-0.5,-0.8660254,0.8660254,-0.5,0,0)"/>
     <path id="path5911" style="enable-background:accumulate;color:#000000;" d="m-263.89-887.24,33.601,0c7.3124,0,13.199,5.8869,13.199,13.199v60.268c0,7.3124-5.8869,13.199-13.199,13.199h-33.601c-7.3124,0-13.199-5.8869-13.199-13.199v-60.268c0-7.3124,5.8869-13.199,13.199-13.199z" transform="scale(-1,-1)"/>
     <path id="path5913" style="enable-background:accumulate;color:#000000;" d="m392.91-793.35,33.601,0c7.3124,0,13.199,5.8869,13.199,13.199v60.268c0,7.3124-5.8869,13.199-13.199,13.199h-33.601c-7.3124,0-13.199-5.8869-13.199-13.199v-60.268c0-7.3124,5.8869-13.199,13.199-13.199z" transform="matrix(-0.5,0.8660254,-0.8660254,-0.5,0,0)"/>
     <path id="path5915" style="enable-background:accumulate;color:#000000;" d="m640.01-177.6,33.601,0c7.3124,0,13.199,5.8869,13.199,13.199v60.268c0,7.3124-5.8869,13.199-13.199,13.199h-33.601c-7.3124,0-13.199-5.8869-13.199-13.199v-60.268c0-7.3124,5.8869-13.199,13.199-13.199z" transform="matrix(0.5,0.8660254,-0.8660254,0.5,0,0)"/>
    </g>
    <g id="g5917" transform="matrix(0.62700938,-0.11081825,0.1076444,0.60905175,-7.3917743,99.764343)">
     <path id="path5919" style="enable-background:accumulate;color:#000000;" d="m281.59,290.47c-4.1945,0.14784-8.3715,0.85406-12.406,2.125-16.286,5.13-27.036,18.755-32.438,33.875-5.4014,15.12-5.9547,32.138-1.3125,46.875,2.2504,7.144,4.0014,13.999,6.2188,20.375-8.1582,2.1196-16.028,4.7468-23.562,7.875-0.47501-14.227-5.5343-28.841-14.25-40.625-9.149-12.37-22.781-21.875-39.094-21.875s-30.655,9.2542-40.906,21.5-16.875,27.786-16.875,43.125c0,13.681,9.1197,24.56,20.219,32.562,7.6116,5.488,16.509,9.8142,25.594,13.125-29.401,34.565-45.812,80.457-45.812,130.22,0,52.354,22.055,84.801,57.438,101.62,35.382,16.824,82.743,19.688,136.62,19.688,54.346,0,104.1-7.6329,141.25-29.094,37.147-21.461,60.875-57.833,60.875-110.41,0-50.756-23.759-93.387-60.438-123.34-31.72-25.94-73.08-42.65-117.7-48.33,5.0779-4.6759,9.7171-9.7618,13.562-15.125,7.8394-10.934,12.861-23.84,8.8438-36.594-4.1823-13.277-13.586-25.065-25.312-33.75-11.726-8.6853-25.951-14.357-40.5-13.844z" transform="translate(6,0)" fill="#f95ee4"/>
     <path id="path5921" style="enable-background:accumulate;color:#000000;" fill="#fa73e8" d="m287.88,298.66c-3.4722,0.12238-6.8938,0.70265-10.219,1.75-26.599,8.3788-36.439,44.969-28.406,70.469,3.545,11.254,5.8782,21.448,9.6562,28.594-15.306,3.1009-29.565,8.1109-42.656,14.688-0.0654-3.3227-0.15625-6.808-0.15625-10.438,0-25.707-19.126-56.438-45.344-56.438s-49.594,30.731-49.594,56.438c0,19.753,27.493,35.47,52.125,41.688-33.299,33.725-52.125,81.647-52.125,134.22,0,100.42,78.76,113.12,185.88,113.12s193.94-30.892,193.94-131.31c0-96.443-89.407-160.43-191.38-165.34,21.667-14.3,41.827-37.064,36-55.562-7.0284-22.312-33.414-42.732-57.719-41.875z"/>
     <path id="path5923" style="enable-background:accumulate;color:#000000;" d="m193.95,404.85c0,10.6-9.0452,19.193-20.203,19.193s-20.203-8.593-20.203-19.193,9.0452-19.193,20.203-19.193,20.203,8.593,20.203,19.193z" transform="translate(-10,-6)" fill="#f945e0"/>
     <path id="path5925" style="enable-background:accumulate;color:#000000;" fill="#f945e0" d="m311.66,352c0,14.545-11.124,26.336-24.846,26.336s-24.846-11.791-24.846-26.336,11.124-26.336,24.846-26.336,24.846,11.791,24.846,26.336z"/>
     <g id="g5927" transform="matrix(-1.5381024,0.12439204,0.10468412,1.4413767,707.8939,-243.22054)">
      <path id="path5929" style="enable-background:accumulate;color:#000000;" d="m268.56,472.47c-28.372,0-51.312,23.777-51.312,52.75s22.941,52.75,51.312,52.75c28.372,0,51.312-23.777,51.312-52.75s-22.941-52.75-51.312-52.75z" transform="matrix(0.6250731,0.00107385,8.6228301e-4,0.64903298,69.053273,146.2328)" fill="#f947e1"/>
      <path id="path5931" style="enable-background:accumulate;color:#000000;" d="m314.29,525.22c0,26.036-20.467,47.143-45.714,47.143s-45.714-21.107-45.714-47.143,20.467-47.143,45.714-47.143,45.714,21.107,45.714,47.143z" transform="matrix(0.62500001,0,0,0.63636363,69.57143,153.84598)" fill="#FFF"/>
      <path id="path5933" style="enable-background:accumulate;color:#000000;" d="m220.21,565.47c0,5.5789-4.2965,10.102-9.5964,10.102-5.3,0-9.5964-4.5226-9.5964-10.102,0-5.5789,4.2965-10.102,9.5964-10.102,5.3,0,9.5964,4.5226,9.5964,10.102z" transform="matrix(1.3684211,0,0,1.4,-53.796168,-303.94889)" fill="#1c1c1c"/>
     </g>
     <g id="g5935" transform="matrix(1.3495956,0.10663083,-0.09185424,1.2355709,-87.725416,-89.622496)">
      <path id="path5937" style="enable-background:accumulate;color:#000000;" d="m268.56,472.47c-28.372,0-51.312,23.777-51.312,52.75s22.941,52.75,51.312,52.75c28.372,0,51.312-23.777,51.312-52.75s-22.941-52.75-51.312-52.75z" transform="matrix(0.6250731,0.00107385,8.6228301e-4,0.64903298,69.053273,146.2328)" fill="#f947e1"/>
      <path id="path5939" style="enable-background:accumulate;color:#000000;" d="m314.29,525.22c0,26.036-20.467,47.143-45.714,47.143s-45.714-21.107-45.714-47.143,20.467-47.143,45.714-47.143,45.714,21.107,45.714,47.143z" transform="matrix(0.62500001,0,0,0.63636363,69.57143,153.84598)" fill="#FFF"/>
      <path id="path5941" style="enable-background:accumulate;color:#000000;" d="m220.21,565.47c0,5.5789-4.2965,10.102-9.5964,10.102-5.3,0-9.5964-4.5226-9.5964-10.102,0-5.5789,4.2965-10.102,9.5964-10.102,5.3,0,9.5964,4.5226,9.5964,10.102z" transform="matrix(1.3684211,0,0,1.4,-53.796168,-303.94889)" fill="#1c1c1c"/>
     </g>
     <g id="g5943" fill="#f829db">
      <path id="path5945" style="enable-background:accumulate;color:#000000;" d="m293.16,499.81c-33.621,0.47806-60.622,8.8297-78.688,25.75-18.065,16.92-25.533,42.052-21.906,70.219,3.2347,25.123,18.221,47.525,38.062,63.875s44.897,26.969,70.406,26.969c50.569,0,85.645-41.052,91.875-88.281,3.3083-25.081,1.6553-49.021-12.125-67.594-13.78-18.58-38.3-29.06-73.78-30.7-4.7382-0.21862-9.3636-0.3137-13.844-0.25z" transform="matrix(1.0608474,-0.26970379,0.24402686,0.95985026,-152.62014,78.379345)"/>
      <path id="path5947" style="enable-background:accumulate;color:#000000;" d="m271.73,573.55c0,7.8105-2.7136,14.142-6.0609,14.142-3.3474,0-6.0609-6.3316-6.0609-14.142,0-7.8105,2.7136-14.142,6.0609-14.142,3.3474,0,6.0609,6.3316,6.0609,14.142z" transform="matrix(1.7623205,0.94563539,-0.57413577,1.0699803,144.6885,-289.5064)"/>
      <path id="path5949" style="enable-background:accumulate;color:#000000;" d="m271.73,573.55c0,7.8105-2.7136,14.142-6.0609,14.142-3.3474,0-6.0609-6.3316-6.0609-14.142,0-7.8105,2.7136-14.142,6.0609-14.142,3.3474,0,6.0609,6.3316,6.0609,14.142z" transform="matrix(1.4701215,-1.3560025,0.82328721,0.89257376,-521.21532,410.65043)"/>
     </g>
     <g id="g5951">
      <path id="path5953" style="enable-background:accumulate;color:#000000;" d="m381.11,596.78c-5.6177,42.588-35.856,77.928-80.087,77.928s-91.155-37.865-96.641-80.474c-6.9849-54.25,29.916-85.611,102.04-82.284,66.944,3.0887,80.907,37.707,74.691,84.83z" transform="matrix(1.0608474,-0.26970379,0.24402686,0.95985026,-152.62014,78.379345)" fill="#f945e0"/>
      <path id="path5955" style="enable-background:accumulate;color:#000000;" fill="#c306a9" d="m291.8,572.66c-8.5355,15.138-24.557,22.761-35.786,17.027-11.228-5.7336-13.412-22.653-4.8761-37.791,8.5355-15.138,24.557-22.761,35.786-17.027,11.228,5.7336,13.412,22.653,4.8761,37.791z"/>
      <path id="path5957" style="enable-background:accumulate;color:#000000;" fill="#c306a9" d="m346.46,548.12c6.4303,6.9714,7.6538,16.302,2.7327,20.842-4.921,4.539-14.123,2.5671-20.553-4.4043-6.4303-6.9714-7.6538-16.302-2.7328-20.842,4.921-4.539,14.123-2.5672,20.553,4.4043z"/>
     </g>
    </g>
    <rect id="rect5959" style="enable-background:accumulate;color:#000000;" transform="matrix(0.80417614,0.59439106,-0.59439106,0.80417614,0,0)" ry="5.1181" width="42.426" y="-53.471" x="380.72" height="42.426" fill="#990505"/>
    <path id="path5961" style="enable-background:accumulate;color:#000000;" d="m385.84-53.471,32.19,0c2.8354,0,5.1181,2.2827,5.1181,5.1181v32.19c0,2.8354-2.2827,5.1181-5.1181,5.1181h-32.19c-2.8354,0-5.1181-2.2827-5.1181-5.1181v-32.19c0-2.8354,2.2827-5.1181,5.1181-5.1181z" transform="matrix(0.80417614,0.59439106,-0.59439106,0.80417614,0,0)" fill="#990505"/>
    <path id="path5963" style="enable-background:accumulate;color:#000000;" d="m31.531,226.88,32.19,0c2.8354,0,5.1181,2.2827,5.1181,5.1181v32.19c0,2.8354-2.2827,5.1181-5.1181,5.1181h-32.19c-2.8354,0-5.1181-2.2827-5.1181-5.1181v-32.19c0-2.8354,2.2827-5.1181,5.1181-5.1181z" transform="matrix(0.91684583,-0.39924144,0.39924144,0.91684583,0,0)" fill="#990505"/>
    <path id="path5965" style="enable-background:accumulate;color:#000000;" d="m-388.42,60.218,32.19,0c2.8354,0,5.1181,2.2827,5.1181,5.1181v32.19c0,2.8354-2.2827,5.1181-5.1181,5.1181h-32.19c-2.8354,0-5.1181-2.2827-5.1181-5.1181v-32.19c0-2.8354,2.2827-5.1181,5.1181-5.1181z" transform="matrix(0.11266969,-0.9936325,0.9936325,0.11266969,0,0)" fill="#990505"/>
    <path id="path5967" style="enable-background:accumulate;color:#000000;" d="m-454.06-386.8,32.19,0c2.8354,0,5.1181,2.2827,5.1181,5.1181v32.19c0,2.8354-2.2827,5.1181-5.1181,5.1181h-32.19c-2.8354,0-5.1181-2.2827-5.1181-5.1181v-32.19c0-2.8354,2.2827-5.1181,5.1181-5.1181z" transform="matrix(-0.80417614,-0.59439106,0.59439106,-0.80417614,0,0)" fill="#990505"/>
    <path id="path5969" style="enable-background:accumulate;color:#000000;" d="m-99.746-667.15,32.19,0c2.8354,0,5.1181,2.2827,5.1181,5.1181v32.19c0,2.8354-2.2827,5.1181-5.1181,5.1181h-32.19c-2.8354,0-5.1181-2.2827-5.1181-5.1181v-32.19c0-2.8354,2.2827-5.1181,5.1181-5.1181z" transform="matrix(-0.91684583,0.39924144,-0.39924144,-0.91684583,0,0)" fill="#990505"/>
    <path id="path5971" style="enable-background:accumulate;color:#000000;" d="m320.2-500.49,32.19,0c2.8354,0,5.1181,2.2827,5.1181,5.1181v32.19c0,2.8354-2.2827,5.1181-5.1181,5.1181h-32.19c-2.8354,0-5.1181-2.2827-5.1181-5.1181v-32.19c0-2.8354,2.2827-5.1181,5.1181-5.1181z" transform="matrix(-0.11266969,0.9936325,-0.9936325,-0.11266969,0,0)" fill="#990505"/>
    <path id="path5973" style="enable-background:accumulate;color:#000000;" fill="#b00606" d="m342.71,184.37c-5.3934-3.4266-10.766,2.0787-12.985,6.6847-5.2312,8.1099-12.565,15.129-16.79,23.768-1.3542,7.952,8.7572,10.444,13.174,14.983,6.6234,3.7476,11.749,10.876,19.215,12.803,7.6931-0.09,9.7484-9.6927,14.501-14.152,3.5328-6.4355,10.748-11.324,12.213-18.68-0.34473-7.5171-9.7393-9.5115-14.156-14.233-5.0669-3.7113-10.074-7.5088-15.172-11.175z"/>
    <path id="path5975" style="enable-background:accumulate;color:#000000;" fill="#b00606" d="m118.1,193.88c-6.0797,3.2554-3.1228,11.042-0.30404,15.504,4.2654,8.2852,6.5668,17.829,11.789,25.508,6.19,5.1692,13.431-2.3694,19.563-3.9173,6.5513-3.8718,15.301-4.7228,20.696-10.239,3.7914-6.6908-3.5305-13.294-5.0051-19.634-3.7569-6.2676-4.4613-14.793-9.9344-19.84-6.7056-3.6177-13.2,3.5736-19.54,5.0661-5.7475,2.5324-11.54,4.9703-17.264,7.5519z"/>
    <path id="path5977" style="enable-background:accumulate;color:#000000;" fill="#b00606" d="m14.044,393.15c-0.2904,6.3972,7.197,8.2741,12.282,7.9028,9.6389,0.47541,19.385,3.317,28.979,2.657,7.5537-2.7573,4.6747-12.834,6.3889-18.901,0.05844-7.5047,3.2184-15.245,1.6557-22.645-3.6101-7.1045-13.375-3.9744-19.682-5.88-7.3397,0.15826-15.181-3.6457-22.284-1.2373-6.3431,4.0656-3.365,13.194-5.2477,19.376-0.68064,6.2437-1.4656,12.479-2.0921,18.727z"/>
    <path id="path5979" style="enable-background:accumulate;color:#000000;" fill="#b00606" d="m134.59,582.93c5.3952,3.395,10.764-2.0768,12.985-6.6847,5.2412-8.1045,12.552-15.138,16.79-23.768,1.39-7.9304-8.7849-10.471-13.174-14.983-6.6287-3.7377-11.741-10.89-19.215-12.803-7.6913,0.0567-9.7398,9.7021-14.501,14.152-3.5494,6.3874-10.581,11.26-12.215,18.523,0.20062,7.6094,9.7132,9.6517,14.157,14.389,5.0669,3.7113,10.074,7.5088,15.172,11.175z"/>
    <path id="path5981" style="enable-background:accumulate;color:#000000;" fill="#b00606" d="m359.2,573.4c6.0723-3.2327,3.1269-11.061,0.30404-15.504-4.2654-8.2852-6.5668-17.829-11.789-25.508-6.2161-5.1476-13.405,2.3576-19.563,3.9173-6.5572,3.8623-15.293,4.7374-20.696,10.239-3.7923,6.6917,3.5317,13.294,5.0051,19.634,3.7569,6.2676,4.4613,14.793,9.9344,19.84,6.6856,3.6517,13.217-3.5972,19.54-5.0661,5.7475-2.5324,11.54-4.9703,17.264-7.5519z"/>
    <path id="path5983" style="enable-background:accumulate;color:#000000;" fill="#b00606" d="m463.26,374.14c0.27395-6.3816-7.1781-8.2804-12.282-7.9028-9.5994-0.53229-19.283-3.1934-28.848-2.705-7.7309,2.6638-4.7831,12.821-6.5167,18.917-0.0506,7.5126-3.2345,15.272-1.6592,22.676,3.6332,7.1017,13.386,3.9199,19.685,5.8489,7.3243-0.14482,15.098,3.5894,22.215,1.2924,6.3945-4.0181,3.4459-13.196,5.3134-19.4,0.68085-6.2437,1.4654-12.479,2.0921-18.727z"/>
   </g>
   <g id="g5985" transform="matrix(1.0605548,0,0,1.0605548,-851.32623,-235.89118)">
    <path id="path5987" style="enable-background:accumulate;color:#000000;" fill-rule="nonzero" fill="#ed0707" d="m746.51,381.72c-127.03,0-230,102.97-230,230s102.97,230,230,230,230-102.97,230-230-102.97-230-230-230zm0,5c124.26,0,225,100.74,225,225s-100.74,225-225,225-225-100.74-225-225,100.74-225,225-225z"/>
   </g>
  </g>
 </g>
</svg>
